#!OML:ASF F:\VICON\USERDATA\INSTALL\rory3\rory3.ASF
:FULLY-SPECIFIED
:DEGREES
658
root -12.6109 17.3735 9.45139 -2.10399 -1.4294 1.47627
lowerback 11.9142 -0.0707784 -4.70522
upperback 0.382808 -0.686443 0.770006
thorax -6.22667 -0.187101 3.58925
lowerneck -8.80116 -9.45256 -13.6164
upperneck 37.112 -15.146 10.1846
head 16.8888 -7.12608 4.18661
rclavicle 2.57178e-015 9.54166e-015
rhumerus -42.7973 -28.0707 -70.6267
rradius 30.179
rwrist 1.02131
rhand -27.0835 10.0789
rfingers 7.12502
rthumb -0.500696 -19.9003
lclavicle 2.57178e-015 9.54166e-015
lhumerus -32.5394 10.8029 73.7198
lradius 32.8163
lwrist -1.62867
lhand -22.0638 27.7722
lfingers 7.12502
lthumb 4.34716 57.7075
rfemur -3.11545 5.69949 0.439757
rtibia 26.8499
rfoot -10.8743 0.0194994
rtoes -26.7368
lfemur -0.343077 -14.171 -6.3541
ltibia 18.305
lfoot -11.9779 -7.98389
ltoes -28.5992
659
root -12.7736 17.3577 9.44307 -2.14024 -1.35898 1.49034
lowerback 11.9811 -0.061143 -4.85296
upperback 0.432442 -0.70008 0.709676
thorax -6.20941 -0.191779 3.61189
lowerneck -8.97745 -9.4093 -13.5361
upperneck 37.1616 -15.0804 10.1851
head 16.9377 -7.08033 4.18121
rclavicle -1.16227e-014 2.18663e-015
rhumerus -42.5047 -27.8489 -71.0277
rradius 30.3539
rwrist 1.27519
rhand -27.2251 10.1942
rfingers 7.12502
rthumb -0.63753 -19.7846
lclavicle -1.16227e-014 2.18663e-015
lhumerus -32.2986 11.0671 73.4178
lradius 32.4886
lwrist -1.83636
lhand -21.9632 27.8213
lfingers 7.12502
lthumb 4.44433 57.7547
rfemur -2.93734 5.0483 0.985547
rtibia 26.854
rfoot -11.9436 -0.382467
rtoes -27.634
lfemur -0.359103 -14.489 -5.81599
ltibia 18.277
lfoot -11.12 -7.89827
ltoes -28.1266
660
root -12.936 17.3474 9.42994 -2.18749 -1.27038 1.40156
lowerback 12.1391 -0.0616339 -4.87416
upperback 0.469126 -0.71191 0.697098
thorax -6.25788 -0.196445 3.61484
lowerneck -9.12503 -9.39761 -13.6185
upperneck 37.1581 -15.063 10.2908
head 16.9932 -7.06622 4.24059
rclavicle 1.08524e-014 -1.98785e-016
rhumerus -42.2177 -27.5539 -71.4314
rradius 30.6075
rwrist 1.58076
rhand -27.4051 10.1058
rfingers 7.12502
rthumb -0.81131 -19.8724
lclavicle 1.08524e-014 -1.98785e-016
lhumerus -31.8404 11.4183 73.1637
lradius 31.8902
lwrist -2.21337
lhand -22.1994 26.8408
lfingers 7.12502
lthumb 4.21623 56.7789
rfemur -2.92861 4.48877 1.69784
rtibia 27.0171
rfoot -12.9343 -0.924144
rtoes -27.0064
lfemur -0.417058 -14.7495 -5.18062
ltibia 18.4012
lfoot -10.418 -7.58419
ltoes -29.1083
661
root -13.0986 17.3447 9.41131 -2.23573 -1.20217 1.1663
lowerback 12.4468 -0.0786718 -4.72341
upperback 0.443999 -0.728802 0.712787
thorax -6.45712 -0.202801 3.55449
lowerneck -9.29829 -9.35574 -13.6015
upperneck 37.2489 -14.9876 10.2807
head 17.069 -7.02679 4.2451
rclavicle 8.49183e-015 -2.68359e-015
rhumerus -41.9267 -27.2633 -71.7949
rradius 30.7773
rwrist 2.06918
rhand -27.5961 9.84267
rfingers 7.12502
rthumb -0.995854 -20.1348
lclavicle 8.49183e-015 -2.68359e-015
lhumerus -31.7081 11.5824 72.9245
lradius 31.6374
lwrist -2.46222
lhand -22.4583 26.2862
lfingers 7.12502
lthumb 3.9662 56.2291
rfemur -3.0475 3.92272 2.61824
rtibia 27.3361
rfoot -13.8316 -1.25033
rtoes -24.2602
lfemur -0.425945 -14.7454 -4.35728
ltibia 18.3903
lfoot -9.57246 -7.34934
ltoes -30.2397
662
root -13.2561 17.346 9.39623 -2.2618 -1.25515 0.998794
lowerback 12.6407 -0.0490874 -4.55396
upperback 0.4227 -0.678599 0.665392
thorax -6.59579 -0.179983 3.4026
lowerneck -9.27801 -9.27804 -13.462
upperneck 37.2453 -14.8704 10.2128
head 17.0136 -6.96801 4.21585
rclavicle -8.4235e-015 4.42296e-015
rhumerus -41.6037 -26.9701 -72.1756
rradius 30.8281
rwrist 2.49887
rhand -27.8574 9.60565
rfingers 7.12502
rthumb -1.24818 -20.3704
lclavicle -8.4235e-015 4.42296e-015
lhumerus -31.8418 11.619 72.6871
lradius 31.7635
lwrist -2.70571
lhand -22.5388 25.9871
lfingers 7.12502
lthumb 3.88849 55.9313
rfemur -3.24803 3.3157 3.45114
rtibia 27.7171
rfoot -14.6407 -1.51605
rtoes -22.6046
lfemur -0.384672 -14.7286 -3.67709
ltibia 18.3274
lfoot -8.57946 -7.02058
ltoes -30.4559
663
root -13.409 17.3631 9.38581 -2.30689 -1.36919 0.937868
lowerback 12.7294 0.0297823 -4.43959
upperback 0.479432 -0.564638 0.604169
thorax -6.59701 -0.129804 3.25299
lowerneck -9.20827 -9.23867 -13.4162
upperneck 37.1861 -14.8133 10.2138
head 16.9473 -6.94035 4.22152
rclavicle 2.85287e-015 -5.06901e-015
rhumerus -41.2069 -26.5278 -72.6211
rradius 30.9761
rwrist 2.62965
rhand -28.3136 9.29934
rfingers 7.12502
rthumb -1.68879 -20.6737
lclavicle 2.85287e-015 -5.06901e-015
lhumerus -31.7224 11.8618 72.5333
lradius 31.6693
lwrist -3.37728
lhand -22.6212 25.8937
lfingers 7.12502
lthumb 3.80895 55.8394
rfemur -3.44312 3.03384 4.11034
rtibia 28.1112
rfoot -15.5642 -1.55423
rtoes -18.1687
lfemur -0.259015 -14.7271 -3.21112
ltibia 18.3051
lfoot -7.6572 -6.45131
ltoes -31.5877
664
root -13.5603 17.3813 9.3763 -2.40951 -1.51916 0.826597
lowerback 12.832 0.100411 -4.30908
upperback 0.607823 -0.45398 0.606724
thorax -6.52813 -0.0836748 3.16198
lowerneck -9.63814 -9.2819 -13.441
upperneck 37.383 -14.8201 10.1461
head 17.1604 -6.93467 4.18221
rclavicle -2.47704e-015 5.31749e-015
rhumerus -40.5821 -26.1796 -72.9781
rradius 30.8692
rwrist 2.93391
rhand -28.7055 9.09524
rfingers 7.12502
rthumb -2.06725 -20.8745
lclavicle -2.47704e-015 5.31749e-015
lhumerus -31.5089 12.2139 72.5031
lradius 31.4368
lwrist -3.62089
lhand -22.5931 26.9152
lfingers 7.12502
lthumb 3.83604 56.8604
rfemur -3.55944 2.83445 4.83307
rtibia 28.4579
rfoot -16.361 -1.62706
rtoes -14.0373
lfemur -0.104571 -14.6282 -2.74078
ltibia 18.4027
lfoot -6.6646 -5.74839
ltoes -32.6563
